<svg xmlns="http://www.w3.org/2000/svg" viewBox="0 0 64 64" role="img" aria-label="Offhours">
  <defs>
    <linearGradient id="room" x1="9" y1="7" x2="56" y2="58" gradientUnits="userSpaceOnUse">
      <stop stop-color="#6f835f" />
      <stop offset="0.72" stop-color="#4a5f3f" />
      <stop offset="1" stop-color="#3a4b32" />
    </linearGradient>
  </defs>
  <rect x="5" y="5" width="54" height="54" rx="16" fill="url(#room)" />
  <path d="M14 42.5c4.8-9.8 12.1-15 21.9-15.6 5.4-.3 10.1.8 14.1 3.2" fill="none" stroke="#faf8f4" stroke-width="3.3" stroke-linecap="round" />
  <path d="M16 43.5h33" stroke="#faf8f4" stroke-width="3.3" stroke-linecap="round" opacity="0.92" />
  <path d="M22 43V31.5c0-5.4 4.4-9.8 9.8-9.8H38c2.8 0 5.2-2.3 5.2-5.2" fill="none" stroke="#f1eee7" stroke-width="3.3" stroke-linecap="round" />
  <circle cx="44.8" cy="17" r="4.2" fill="#c97550" />
  <path d="M43.2 17a9 9 0 0 1-9-9 9 9 0 1 0 9 9Z" fill="#ffe5d2" />
  <circle cx="31.5" cy="31.5" r="3.4" fill="#ffe5d2" />
  <path d="M31.5 31.5v-5.2m0 5.2 4.2 2.6" stroke="#1a1814" stroke-width="1.6" stroke-linecap="round" />
</svg>
