<svg xmlns="http://www.w3.org/2000/svg" width="1200" height="630" viewBox="0 0 1200 630" role="img" aria-label="Offhours">
  <defs>
    <linearGradient id="bg" x1="0" y1="0" x2="1200" y2="630" gradientUnits="userSpaceOnUse">
      <stop stop-color="#15140f"/>
      <stop offset=".58" stop-color="#2f2a22"/>
      <stop offset="1" stop-color="#ffcf70"/>
    </linearGradient>
    <radialGradient id="halo" cx="78%" cy="19%" r="62%">
      <stop stop-color="#f9735b" stop-opacity=".82"/>
      <stop offset=".56" stop-color="#ffcf70" stop-opacity=".22"/>
      <stop offset="1" stop-color="#15140f" stop-opacity="0"/>
    </radialGradient>
    <filter id="soft" x="-20%" y="-20%" width="140%" height="140%">
      <feDropShadow dx="0" dy="18" stdDeviation="24" flood-color="#15140f" flood-opacity=".26"/>
    </filter>
  </defs>
  <rect width="1200" height="630" fill="url(#bg)"/>
  <rect width="1200" height="630" fill="url(#halo)"/>
  <path d="M0 498C166 430 340 458 512 512c176 54 336 44 504-54 72-42 126-57 184-54v226H0Z" fill="#faf8f4" opacity=".12"/>
  <path d="M74 96h216M74 542h412" stroke="#faf8f4" stroke-opacity=".16" stroke-width="16" stroke-linecap="round"/>
  <g transform="translate(84 86)" filter="url(#soft)">
    <svg width="104" height="104" viewBox="0 0 512 512">
  <rect width="512" height="512" rx="116" fill="url(#bg)"/>
  <rect width="512" height="512" rx="116" fill="url(#glow)"/>
  <path d="M46 342C154 278 238 414 466 292" fill="none" stroke="#faf8f4" stroke-opacity=".1" stroke-width="26" stroke-linecap="round"/>
  <g filter="url(#shadow)">
        <g transform="translate(0 0) scale(1)">
          <circle cx="256" cy="210" r="92" fill="#ffcf70"/>
          <circle cx="292" cy="178" r="92" fill="#2f2a22"/>
          <path d="M112 360h288" stroke="#faf8f4" stroke-width="26" stroke-linecap="round"/>
          <rect x="146" y="258" width="54" height="102" rx="14" fill="#faf8f4"/><rect x="230" y="228" width="54" height="132" rx="14" fill="#faf8f4"/><rect x="314" y="282" width="54" height="78" rx="14" fill="#faf8f4"/>
          <path d="M256 120v42l32 22" stroke="#f9735b" stroke-width="18" stroke-linecap="round" stroke-linejoin="round"/>
        </g></g>
</svg>
  </g>
  <text x="214" y="148" font-family="Inter, Pretendard, system-ui, -apple-system, BlinkMacSystemFont, 'Segoe UI', sans-serif" font-size="34" font-weight="900" fill="#faf8f4">Offhours</text>
  <text x="92" y="270" font-family="Inter, Pretendard, system-ui, -apple-system, BlinkMacSystemFont, 'Segoe UI', sans-serif" font-size="62" font-weight="900" fill="#faf8f4">Offhours</text>
  <text x="94" y="335" font-family="Pretendard, system-ui, -apple-system, BlinkMacSystemFont, 'Segoe UI', sans-serif" font-size="27" font-weight="700" fill="#faf8f4" opacity=".86">비어 있던 시간과 공간을 모임, 파티, 팝업 경험으로 전환하는 플랫폼</text>
  <g transform="translate(92 485)"><rect width="166" height="44" rx="22" fill="#faf8f4" opacity=".13" stroke="#faf8f4" stroke-opacity=".26"/><text x="83" y="28" text-anchor="middle" font-size="15" font-weight="800" fill="#faf8f4">공간 대관</text></g><g transform="translate(282 485)"><rect width="166" height="44" rx="22" fill="#faf8f4" opacity=".13" stroke="#faf8f4" stroke-opacity=".26"/><text x="83" y="28" text-anchor="middle" font-size="15" font-weight="800" fill="#faf8f4">오프타임</text></g><g transform="translate(472 485)"><rect width="166" height="44" rx="22" fill="#faf8f4" opacity=".13" stroke="#faf8f4" stroke-opacity=".26"/><text x="83" y="28" text-anchor="middle" font-size="15" font-weight="800" fill="#faf8f4">모임 경험</text></g>
  <g filter="url(#soft)">
    <g transform="translate(722 116)">
      <rect width="342" height="330" rx="46" fill="#faf8f4" opacity=".94"/>
      <rect x="34" y="36" width="176" height="22" rx="11" fill="#15140f" opacity=".84"/>
      <rect x="34" y="82" width="252" height="14" rx="7" fill="#15140f" opacity=".22"/>
      <rect x="34" y="112" width="206" height="14" rx="7" fill="#15140f" opacity=".14"/>
      <g transform="translate(34 156) scale(.56)">
        <g transform="translate(0 0) scale(1)">
          <circle cx="256" cy="210" r="92" fill="#ffcf70"/>
          <circle cx="292" cy="178" r="92" fill="#2f2a22"/>
          <path d="M112 360h288" stroke="#faf8f4" stroke-width="26" stroke-linecap="round"/>
          <rect x="146" y="258" width="54" height="102" rx="14" fill="#faf8f4"/><rect x="230" y="228" width="54" height="132" rx="14" fill="#faf8f4"/><rect x="314" y="282" width="54" height="78" rx="14" fill="#faf8f4"/>
          <path d="M256 120v42l32 22" stroke="#f9735b" stroke-width="18" stroke-linecap="round" stroke-linejoin="round"/>
        </g></g>
      <rect x="216" y="177" width="72" height="118" rx="24" fill="#ffcf70" opacity=".88"/>
      <rect x="104" y="252" width="184" height="22" rx="11" fill="#f9735b" opacity=".82"/>
    </g></g>
</svg>
